<?xml version="1.0" encoding="UTF-8"?>
<svg width="48px" height="48px" viewBox="0 0 48 48" version="1.1" xmlns="http://www.w3.org/2000/svg" xmlns:xlink="http://www.w3.org/1999/xlink">
    <title>Combined Shape</title>
    <g id="Page-1" stroke="none" stroke-width="1" fill="none" fill-rule="evenodd">
        <g id="12" transform="translate(-1132.000000, -218.000000)" fill="#FFFFFF" fill-rule="nonzero">
            <g id="Message" transform="translate(220.000000, 196.000000)">
                <g id="Header" transform="translate(40.000000, 22.000000)">
                    <g id="Logo" transform="translate(872.000000, 0.000000)">
                        <path d="M24,0 C37.254834,-2.4348735e-15 48,10.745166 48,24 C48,37.254834 37.254834,48 24,48 C10.745166,48 1.623249e-15,37.254834 0,24 C-1.623249e-15,10.745166 10.745166,2.4348735e-15 24,0 Z M24.5494596,9.87723815 C23.9293753,9.57378 23.1806963,9.83045617 22.8772382,10.4505404 L22.8772382,10.4505404 L12.1495287,32.3968369 L12.0171451,32.7037463 C11.8414691,33.1641987 11.75,33.65548 11.75,34.1578947 C11.75,36.4192477 13.589554,38.25 15.8557692,38.25 C17.3291161,38.25 18.6683382,37.4688565 19.3998126,36.2248556 L19.3998126,36.2248556 L19.5364942,35.9747246 L20.2720089,34.5114064 L21.8140323,31.3417096 L25.6568263,23.3281393 C26.00655,22.6067753 26.5058955,22.25 27.1730769,22.25 C27.870925,22.25 28.3266427,22.5755393 28.6912388,23.3321235 L28.6912388,23.3321235 L33.6623927,33.647913 L33.6946642,33.7258235 C33.7325319,33.8343133 33.75,33.9646589 33.75,34.1578947 C33.75,35.0358446 33.0324111,35.75 32.1442308,35.75 C31.5207829,35.75 30.9633118,35.3953713 30.6970365,34.8492476 L30.6970365,34.8492476 L27.342791,28.0271954 C27.0380668,27.4077324 26.288865,27.1525861 25.6694019,27.4573103 C25.0499388,27.7620344 24.7947926,28.5112362 25.0995167,29.1306993 L25.0995167,29.1306993 L28.5474444,36.1325004 C29.2616718,37.4239151 30.6291333,38.25 32.1442308,38.25 C34.410446,38.25 36.25,36.4192477 36.25,34.1578947 C36.25,33.5657125 36.1533007,33.0580926 35.9145304,32.5626133 L35.9145304,32.5626133 L30.9433766,22.2468238 L30.8365943,22.0361268 C30.0661906,20.58994 28.8157061,19.75 27.1730769,19.75 C25.4835891,19.75 24.1519336,20.701449 23.4040464,22.2441981 L23.4040464,22.2441981 L20.1560316,29.0233597 L18.4233416,32.6040244 L17.4031603,34.662176 L17.2447568,34.9576797 C16.9584088,35.4446649 16.4349306,35.75 15.8557692,35.75 C14.9675889,35.75 14.25,35.0358446 14.25,34.1578947 C14.25,33.9291622 14.2979037,33.7094597 14.3894708,33.507187 L14.3894708,33.507187 L25.1227618,11.5494596 C25.42622,10.9293753 25.1695438,10.1806963 24.5494596,9.87723815 Z" id="Combined-Shape"></path>
                    </g>
                </g>
            </g>
        </g>
    </g>
</svg>